<?xml version="1.0" encoding="UTF-8" ?>
<!DOCTYPE svg PUBLIC "-//W3C//DTD SVG 1.1//EN" "http://www.w3.org/Graphics/SVG/1.1/DTD/svg11.dtd">
<svg width="400pt" height="106pt" viewBox="0 0 400 106" version="1.1" xmlns="http://www.w3.org/2000/svg">
<g id="#ffffffff">
<path fill="#ffffff" opacity="1.00" d=" M 44.61 2.83 C 49.43 -0.43 55.57 1.35 61.00 0.90 C 64.59 0.32 67.51 3.06 71.00 2.91 C 113.87 2.86 156.75 3.03 199.62 2.86 C 205.69 -0.87 213.21 1.40 219.93 0.78 C 227.91 1.38 236.46 -0.83 243.93 2.82 C 274.29 3.09 304.67 2.83 335.03 2.95 C 339.74 3.14 344.31 1.81 348.97 1.47 C 355.97 1.02 363.03 1.24 369.93 2.54 C 373.70 3.27 377.82 3.58 380.94 6.07 C 382.67 7.34 383.16 9.56 383.95 11.45 C 387.21 11.61 391.41 11.44 393.28 14.71 C 395.73 17.98 394.63 22.23 394.47 25.98 C 394.03 31.04 394.66 37.28 389.73 40.42 C 392.16 50.12 393.68 60.04 394.72 69.97 C 394.06 76.98 395.52 84.23 393.00 90.99 C 391.61 94.60 387.89 96.71 384.19 97.13 C 377.83 98.04 371.51 99.60 365.05 99.46 C 353.32 99.36 341.59 99.49 329.85 99.64 C 327.80 102.32 325.18 104.55 322.12 106.00 L 303.49 106.00 C 300.71 104.38 298.26 102.24 296.17 99.81 C 242.71 99.64 189.26 100.04 135.81 99.61 C 133.54 102.28 130.79 104.56 127.58 106.00 L 110.38 106.00 C 107.29 104.48 104.50 102.36 102.41 99.62 C 86.58 99.55 70.75 99.86 54.94 99.44 C 43.67 97.81 32.36 96.42 21.05 95.07 C 16.43 94.53 10.69 94.58 7.80 90.23 C 4.62 85.76 6.86 80.13 6.14 75.12 C 5.61 54.72 6.04 34.29 7.49 13.93 C 7.81 11.22 8.26 8.25 10.37 6.30 C 13.07 3.34 17.28 2.77 21.07 2.73 C 28.91 3.00 36.76 2.92 44.61 2.83 M 347.83 8.80 L 348.82 9.04 C 344.50 9.03 340.29 10.19 335.98 10.19 C 305.32 10.16 274.66 10.19 244.00 10.17 C 239.66 9.83 235.31 9.51 230.95 9.67 C 220.30 9.86 209.62 9.22 199.00 10.17 C 155.35 10.18 111.70 10.22 68.06 10.06 C 62.14 9.74 56.20 9.51 50.30 10.01 C 40.44 9.74 30.54 10.30 20.68 9.77 C 18.63 9.90 16.56 10.22 14.88 11.51 C 14.30 17.67 14.00 23.85 13.82 30.04 C 13.10 38.85 13.01 47.67 13.17 56.51 C 13.27 63.69 12.95 70.88 13.55 78.05 C 13.67 80.89 12.58 83.84 13.78 86.57 L 13.77 87.12 L 14.87 87.06 C 17.12 87.42 19.39 87.89 21.68 87.73 C 30.29 89.22 39.00 90.06 47.67 91.18 C 48.93 91.34 50.18 91.50 51.44 91.67 C 52.89 92.15 54.44 92.23 55.95 92.29 C 71.40 92.46 86.85 92.36 102.31 92.35 C 102.43 88.32 102.82 84.30 102.65 80.26 C 106.77 71.61 117.82 67.15 126.60 71.39 C 130.02 73.54 133.39 76.29 135.09 80.04 C 135.75 84.10 135.56 88.27 135.69 92.38 C 189.32 92.77 242.97 92.45 296.61 92.55 C 296.60 88.95 296.52 85.35 296.18 81.77 C 298.07 76.84 301.95 72.66 307.00 70.94 C 315.60 67.62 326.23 72.47 329.41 81.11 C 329.85 84.82 329.49 88.57 329.58 92.30 C 332.42 92.36 335.27 92.38 338.12 92.25 C 338.89 92.26 340.41 92.27 341.18 92.28 C 345.04 92.28 348.91 92.27 352.78 92.22 C 353.62 92.22 355.29 92.22 356.13 92.22 C 360.36 92.29 364.60 92.26 368.83 92.26 C 369.66 92.14 371.31 91.89 372.13 91.76 C 371.90 81.71 372.08 71.66 372.03 61.62 C 375.06 62.36 378.89 60.97 381.45 62.67 C 381.85 66.40 381.68 70.18 381.34 73.91 C 378.33 73.93 375.33 73.94 372.33 73.93 C 372.34 79.89 372.44 85.85 372.34 91.82 C 376.19 91.19 380.08 90.76 383.91 89.99 C 385.43 89.85 386.70 88.53 386.86 87.03 C 387.79 83.13 387.30 79.12 387.13 75.17 C 387.65 72.77 387.64 70.28 387.30 67.86 C 385.87 57.15 385.11 46.17 381.26 35.98 C 379.83 31.01 377.06 26.38 376.55 21.19 C 378.74 20.99 380.97 20.72 383.17 21.12 C 384.20 25.17 383.82 29.45 384.57 33.56 C 385.13 33.74 386.26 34.11 386.82 34.29 C 387.06 29.10 387.30 23.89 388.10 18.74 C 384.27 18.72 380.43 18.76 376.60 18.63 C 376.64 16.06 377.11 13.37 376.10 10.91 C 366.85 8.76 357.29 7.89 347.83 8.80 M 114.38 73.55 C 111.57 74.76 108.77 76.50 107.25 79.24 C 104.95 82.66 105.12 87.08 105.88 90.96 C 107.78 98.46 116.92 102.80 123.96 99.76 C 131.12 97.44 134.42 88.70 132.13 81.85 C 130.07 74.62 121.21 70.86 114.38 73.55 M 309.47 73.55 C 303.05 75.05 298.65 81.59 299.20 88.07 C 299.48 95.93 307.42 102.42 315.19 100.87 C 323.30 99.80 328.92 90.53 326.14 82.86 C 324.31 75.95 316.31 71.46 309.47 73.55 Z" />
<path fill="#ffffff" opacity="1.00" d=" M 371.55 25.85 C 372.02 24.70 372.55 23.58 373.11 22.47 C 374.93 27.53 376.66 32.63 378.53 37.67 C 381.10 44.49 381.80 51.79 383.24 58.89 C 383.69 59.14 384.60 59.63 385.05 59.88 C 380.70 60.02 376.36 60.05 372.01 60.12 C 371.70 48.71 372.59 37.22 371.55 25.85 Z" />
<path fill="#ffffff" opacity="1.00" d=" M 22.93 23.74 C 30.22 23.68 37.50 23.83 44.79 23.73 C 44.36 32.53 44.77 41.35 44.56 50.16 C 40.15 49.93 35.73 49.94 31.32 49.97 C 29.59 46.42 29.12 42.36 26.92 39.04 C 25.57 39.08 24.23 39.11 22.88 39.14 C 22.91 34.01 22.84 28.87 22.93 23.74 Z" />
<path fill="#ffffff" opacity="1.00" d=" M 47.41 23.76 C 64.17 24.20 80.97 23.99 97.75 23.87 C 97.78 32.53 97.78 41.20 97.78 49.87 C 80.98 50.07 64.18 49.95 47.38 49.93 C 47.39 41.21 47.40 32.49 47.41 23.76 Z" />
<path fill="#ffffff" opacity="1.00" d=" M 100.54 23.78 C 117.53 23.96 134.51 23.92 151.50 23.80 C 151.50 32.52 151.50 41.25 151.50 49.98 C 134.50 49.95 117.50 49.95 100.51 49.98 C 100.52 41.25 100.46 32.51 100.54 23.78 Z" />
<path fill="#ffffff" opacity="1.00" d=" M 197.31 59.69 C 197.34 47.68 197.19 35.67 197.40 23.66 C 214.21 23.87 231.03 23.61 247.84 23.79 C 247.77 35.77 247.88 47.74 247.79 59.72 C 230.96 59.71 214.14 59.75 197.31 59.69 Z" />
<path fill="#ffffff" opacity="1.00" d=" M 250.33 24.10 C 254.88 23.78 259.42 24.08 263.97 24.36 C 276.44 24.39 288.93 24.42 301.40 24.27 C 301.13 36.01 301.26 47.76 301.34 59.50 C 284.49 60.24 267.60 59.54 250.74 59.86 C 249.87 47.98 250.69 36.01 250.33 24.10 M 259.76 25.69 C 259.78 27.86 259.79 30.04 259.78 32.21 C 272.62 32.17 285.46 32.16 298.30 32.21 C 298.26 29.91 298.23 27.60 298.10 25.30 C 285.33 25.62 272.51 24.85 259.76 25.69 Z" />
<path fill="#ffffff" opacity="1.00" d=" M 304.10 24.08 C 315.32 24.06 326.59 23.63 337.79 24.26 C 337.93 24.71 338.22 25.59 338.36 26.04 C 337.64 29.30 337.82 32.66 337.82 35.98 C 337.88 43.86 337.75 51.75 337.89 59.63 C 327.60 59.72 317.30 59.66 307.00 59.69 C 305.84 59.60 303.75 60.00 304.10 58.09 C 303.96 46.76 304.03 35.42 304.10 24.08 Z" />
<path fill="#ffffff" opacity="1.00" d=" M 156.04 27.38 C 161.67 27.42 167.29 27.45 172.92 27.34 C 173.09 38.67 172.96 50.00 173.00 61.32 C 167.34 61.08 161.68 61.29 156.02 61.23 C 156.00 49.95 155.97 38.66 156.04 27.38 Z" />
<path fill="#ffffff" opacity="1.00" d=" M 176.06 27.36 C 181.68 27.44 187.31 27.45 192.93 27.35 C 193.07 38.64 192.97 49.92 192.99 61.21 C 187.33 61.28 181.66 61.04 176.00 61.35 C 176.03 50.02 175.93 38.69 176.06 27.36 Z" />
<path fill="#ffffff" opacity="1.00" d=" M 341.05 26.64 C 345.02 26.86 349.01 26.85 352.99 26.83 C 352.98 46.89 353.05 66.95 352.96 87.00 C 348.98 86.97 344.99 86.91 341.02 87.20 C 340.98 67.01 341.06 46.82 341.05 26.64 Z" />
<path fill="#ffffff" opacity="1.00" d=" M 356.02 26.80 C 360.35 26.87 364.67 27.06 369.00 27.06 C 368.87 47.04 369.03 67.02 368.89 87.00 C 364.59 86.99 360.30 86.98 356.01 87.01 C 355.99 66.94 355.99 46.87 356.02 26.80 Z" />
<path fill="#ffffff" opacity="1.00" d=" M 112.84 83.99 C 113.81 81.34 116.59 80.34 119.02 79.49 C 121.60 80.37 124.49 81.61 125.38 84.45 C 127.08 88.66 123.42 93.67 118.97 93.64 C 114.41 93.60 110.69 88.20 112.84 83.99 Z" />
<path fill="#ffffff" opacity="1.00" d=" M 310.54 80.68 C 315.48 78.48 321.24 84.00 319.45 89.04 C 318.22 93.82 311.42 95.60 308.16 91.80 C 304.70 88.51 306.24 82.43 310.54 80.68 Z" />
</g>
<g id="#0492d0ff">
<path fill="#0492d0" opacity="1.00" d=" M 347.83 8.80 C 357.29 7.89 366.85 8.76 376.10 10.91 C 376.04 13.34 376.06 15.76 376.08 18.19 C 372.28 17.44 368.59 16.17 364.73 15.75 C 364.91 17.49 365.06 19.23 365.41 20.94 C 366.94 21.51 368.56 21.78 370.15 22.15 L 370.17 23.16 C 367.37 23.35 364.57 23.60 361.77 23.69 C 354.31 23.53 346.86 23.73 339.41 23.44 C 340.03 19.16 339.09 14.88 338.67 10.62 C 343.14 10.35 347.56 9.48 352.06 9.52 C 350.97 9.36 349.89 9.20 348.82 9.04 L 347.83 8.80 Z" />
<path fill="#0492d0" opacity="1.00" d=" M 14.88 11.51 C 16.56 10.22 18.63 9.90 20.68 9.77 C 20.61 14.12 20.56 18.47 20.80 22.81 C 21.07 33.77 20.75 44.74 20.97 55.70 C 18.43 55.74 15.90 55.78 13.37 55.80 C 13.16 47.21 13.64 38.62 13.82 30.04 C 14.00 23.85 14.30 17.67 14.88 11.51 Z" />
<path fill="#0492d0" opacity="1.00" d=" M 21.93 11.24 C 29.98 11.25 38.02 11.24 46.06 11.23 C 45.90 15.33 45.83 19.42 45.82 23.52 C 37.83 23.14 29.81 23.69 21.83 23.16 C 21.86 19.19 21.90 15.21 21.93 11.24 Z" />
<path fill="#0492d0" opacity="1.00" d=" M 367.15 17.42 C 368.88 16.68 369.75 19.72 367.98 20.16 C 366.24 20.76 365.57 17.99 367.15 17.42 Z" />
<path fill="#0492d0" opacity="1.00" d=" M 13.76 56.46 C 16.18 56.30 18.61 56.34 21.04 56.39 C 20.95 58.08 20.87 59.76 20.79 61.45 C 20.53 67.35 20.58 73.24 20.70 79.14 C 18.54 79.20 16.37 79.25 14.20 79.30 C 13.69 71.69 13.76 64.07 13.76 56.46 Z" />
<path fill="#0492d0" opacity="1.00" d=" M 372.01 60.12 C 376.36 60.05 380.70 60.02 385.05 59.88 C 384.77 60.28 384.21 61.09 383.93 61.49 C 384.40 61.81 385.34 62.44 385.81 62.75 C 386.90 66.78 386.71 71.03 387.13 75.17 C 387.30 79.12 387.79 83.13 386.86 87.03 C 386.70 88.53 385.43 89.85 383.91 89.99 C 380.08 90.76 376.19 91.19 372.34 91.82 C 372.44 85.85 372.34 79.89 372.33 73.93 C 375.33 73.94 378.33 73.93 381.34 73.91 C 381.68 70.18 381.85 66.40 381.45 62.67 C 378.89 60.97 375.06 62.36 372.03 61.62 C 372.03 61.24 372.02 60.50 372.01 60.12 Z" />
<path fill="#0492d0" opacity="1.00" d=" M 21.91 62.06 C 23.54 62.02 25.18 61.97 26.82 61.95 C 25.11 67.91 26.30 74.18 25.90 80.28 C 24.62 80.43 23.34 80.58 22.06 80.73 C 21.65 74.51 21.78 68.28 21.91 62.06 Z" />
<path fill="#0492d0" opacity="1.00" d=" M 336.42 65.48 C 336.81 65.02 337.60 64.08 337.99 63.62 C 338.12 73.16 337.76 82.71 338.12 92.25 C 335.27 92.38 332.42 92.36 329.58 92.30 C 329.96 88.66 330.19 85.01 330.29 81.35 C 332.45 81.30 334.62 81.26 336.79 81.21 C 336.73 79.14 336.68 77.07 336.64 75.00 C 336.63 74.42 336.60 73.26 336.59 72.67 C 336.58 72.36 336.57 71.72 336.57 71.40 C 335.00 71.21 333.44 71.01 331.88 70.82 C 331.97 69.37 331.90 67.89 332.31 66.48 C 333.66 66.06 335.04 65.79 336.42 65.48 M 332.65 66.58 C 332.50 67.20 332.19 68.43 332.04 69.04 L 332.63 70.44 C 333.25 70.59 334.48 70.88 335.10 71.03 C 339.25 70.03 335.96 63.89 332.65 66.58 M 333.58 85.16 C 333.83 86.48 334.58 86.69 335.81 85.82 C 335.55 84.50 334.80 84.28 333.58 85.16 Z" />
<path fill="#0492d0" opacity="1.00" d=" M 46.34 77.28 C 47.50 79.29 47.86 81.58 47.47 83.86 C 47.09 83.84 46.32 83.80 45.93 83.77 C 46.12 81.61 46.26 79.45 46.34 77.28 Z" />
<path fill="#0492d0" opacity="1.00" d=" M 13.91 80.72 C 16.19 80.80 18.47 80.89 20.75 80.99 C 20.71 82.91 20.67 84.83 20.64 86.75 C 18.72 86.85 16.79 86.95 14.87 87.06 L 13.77 87.12 L 13.78 86.57 C 13.84 84.62 13.88 82.67 13.91 80.72 Z" />
<path fill="#0492d0" opacity="1.00" d=" M 48.51 82.05 C 61.28 80.61 74.13 81.72 86.95 81.27 C 91.86 81.21 96.89 80.95 101.69 82.24 C 102.19 83.80 99.83 83.89 98.97 84.71 C 99.63 84.88 100.93 85.21 101.58 85.38 C 101.22 85.70 100.49 86.33 100.12 86.65 C 100.50 86.86 101.25 87.29 101.63 87.51 C 101.85 89.12 102.08 90.74 102.31 92.35 C 86.85 92.36 71.40 92.46 55.95 92.29 C 54.44 92.23 52.89 92.15 51.44 91.67 C 50.83 91.45 49.61 91.00 48.99 90.78 C 49.11 88.93 49.22 87.08 49.33 85.24 C 49.66 85.07 50.32 84.75 50.66 84.58 C 49.94 83.74 49.22 82.90 48.51 82.05 Z" />
<path fill="#0492d0" opacity="1.00" d=" M 136.04 83.55 C 135.89 81.82 137.84 81.41 139.16 81.47 C 143.74 81.48 148.32 81.89 152.90 81.87 C 152.90 82.49 152.91 83.73 152.91 84.35 C 152.45 84.36 151.54 84.39 151.08 84.41 C 151.54 84.51 152.44 84.73 152.89 84.84 C 152.93 87.17 152.98 89.51 153.04 91.84 C 153.77 91.85 155.24 91.86 155.97 91.87 C 156.03 88.20 156.03 84.53 156.04 80.85 C 161.69 80.74 167.34 80.73 172.99 80.86 C 172.99 84.51 172.99 88.17 173.01 91.82 C 173.75 91.83 175.23 91.86 175.98 91.87 C 176.01 88.21 176.00 84.55 176.00 80.89 C 181.66 81.14 187.32 80.70 192.98 80.80 C 192.99 84.49 192.99 88.17 193.02 91.86 C 193.76 91.85 195.24 91.85 195.98 91.85 C 196.05 88.51 196.09 85.18 196.08 81.85 C 229.45 81.71 262.81 81.81 296.18 81.77 C 296.52 85.35 296.60 88.95 296.61 92.55 C 242.97 92.45 189.32 92.77 135.69 92.38 C 135.88 90.75 136.07 89.12 136.26 87.50 C 136.83 87.30 137.96 86.89 138.53 86.69 L 138.81 85.84 L 139.06 85.02 L 139.97 84.30 C 138.65 84.10 137.30 84.00 136.04 83.55 M 161.91 81.91 C 161.93 82.67 161.96 84.18 161.98 84.94 C 163.61 84.91 165.25 84.88 166.88 84.85 C 166.93 84.12 167.02 82.66 167.06 81.92 C 165.34 81.92 163.63 81.91 161.91 81.91 M 182.23 82.07 C 182.27 82.76 182.35 84.12 182.39 84.81 C 184.12 84.82 185.84 84.83 187.58 84.83 C 187.62 84.14 187.70 82.75 187.74 82.06 C 185.90 81.97 184.06 81.97 182.23 82.07 M 157.36 83.05 C 157.42 86.36 160.43 81.59 157.36 83.05 M 190.33 83.06 C 190.42 86.37 193.39 81.58 190.33 83.06 M 202.41 85.20 C 202.68 86.48 203.44 86.70 204.70 85.83 C 204.42 84.54 203.66 84.33 202.41 85.20 M 272.32 85.21 C 272.62 86.50 273.38 86.71 274.61 85.82 C 274.30 84.53 273.54 84.33 272.32 85.21 Z" />
<path fill="#0492d0" opacity="1.00" d=" M 22.34 82.66 C 22.57 81.22 24.95 81.83 25.93 82.15 C 26.05 82.61 26.30 83.54 26.42 84.00 C 25.04 83.68 23.42 83.68 22.34 82.66 Z" />
<path fill="#0492d0" opacity="1.00" d=" M 30.20 84.65 C 31.41 84.84 32.61 85.05 33.81 85.29 C 29.93 86.27 25.90 86.08 21.94 85.98 L 22.00 84.74 C 24.73 84.65 27.47 84.52 30.20 84.65 Z" />
<path fill="#0492d0" opacity="1.00" d=" M 46.06 85.13 L 46.54 84.58 L 47.33 84.99 L 47.36 85.94 L 46.59 86.39 C 46.45 86.08 46.19 85.45 46.06 85.13 Z" />
<path fill="#0492d0" opacity="1.00" d=" M 21.68 87.73 C 27.54 86.98 33.45 87.06 39.33 86.64 C 39.95 86.68 41.18 86.77 41.79 86.82 C 43.75 86.96 45.72 87.11 47.68 87.25 C 47.68 88.56 47.67 89.87 47.67 91.18 C 39.00 90.06 30.29 89.22 21.68 87.73 Z" />
</g>
<g id="#4b4243ff">
<path fill="#4b4243" opacity="1.00" d=" M 199.00 10.17 C 209.62 9.22 220.30 9.86 230.95 9.67 C 235.31 9.51 239.66 9.83 244.00 10.17 C 274.66 10.19 305.32 10.16 335.98 10.19 C 340.29 10.19 344.50 9.03 348.82 9.04 C 349.89 9.20 350.97 9.36 352.06 9.52 C 347.56 9.48 343.14 10.35 338.67 10.62 C 245.11 10.71 151.55 10.64 57.99 10.69 C 55.41 10.73 52.84 10.43 50.30 10.01 C 56.20 9.51 62.14 9.74 68.06 10.06 C 111.70 10.22 155.35 10.18 199.00 10.17 Z" />
<path fill="#4b4243" opacity="1.00" d=" M 376.60 18.63 C 380.43 18.76 384.27 18.72 388.10 18.74 C 387.30 23.89 387.06 29.10 386.82 34.29 C 386.26 34.11 385.13 33.74 384.57 33.56 C 383.82 29.45 384.20 25.17 383.17 21.12 C 380.97 20.72 378.74 20.99 376.55 21.19 C 376.54 20.34 376.55 19.48 376.60 18.63 Z" />
<path fill="#4b4243" opacity="1.00" d=" M 20.80 22.81 L 21.83 23.16 C 29.81 23.69 37.83 23.14 45.82 23.52 C 46.22 23.58 47.01 23.70 47.41 23.76 C 47.40 32.49 47.39 41.21 47.38 49.93 C 64.18 49.95 80.98 50.07 97.78 49.87 C 97.78 41.20 97.78 32.53 97.75 23.87 C 98.68 23.81 99.61 23.78 100.54 23.78 C 100.46 32.51 100.52 41.25 100.51 49.98 C 117.50 49.95 134.50 49.95 151.50 49.98 C 151.50 41.25 151.50 32.52 151.50 23.80 C 166.52 24.78 181.59 23.62 196.61 24.49 C 183.11 25.23 169.57 24.65 156.06 24.81 C 155.03 25.53 154.01 26.25 152.98 26.96 C 152.97 38.44 153.01 49.91 152.98 61.39 C 133.64 61.32 114.29 61.54 94.95 61.29 C 89.26 60.75 83.53 60.78 77.85 61.48 C 58.84 62.42 39.81 60.62 20.79 61.45 C 20.87 59.76 20.95 58.08 21.04 56.39 C 18.61 56.34 16.18 56.30 13.76 56.46 L 13.17 56.51 C 13.01 47.67 13.10 38.85 13.82 30.04 C 13.64 38.62 13.16 47.21 13.37 55.80 C 15.90 55.78 18.43 55.74 20.97 55.70 C 20.75 44.74 21.07 33.77 20.80 22.81 M 22.93 23.74 C 22.84 28.87 22.91 34.01 22.88 39.14 C 24.23 39.11 25.57 39.08 26.92 39.04 C 29.12 42.36 29.59 46.42 31.32 49.97 C 35.73 49.94 40.15 49.93 44.56 50.16 C 44.77 41.35 44.36 32.53 44.79 23.73 C 37.50 23.83 30.22 23.68 22.93 23.74 Z" />
<path fill="#4b4243" opacity="1.00" d=" M 26.82 61.95 C 31.52 61.95 36.22 61.86 40.91 61.92 C 42.63 62.03 44.59 61.86 45.93 63.18 C 46.56 67.85 46.11 72.58 46.34 77.28 C 46.26 79.45 46.12 81.61 45.93 83.77 C 44.79 83.96 43.65 84.14 42.52 84.34 C 43.27 84.87 45.08 85.18 44.42 86.45 C 43.76 86.55 42.45 86.73 41.79 86.82 C 41.18 86.77 39.95 86.68 39.33 86.64 C 37.49 86.18 35.67 85.66 33.81 85.29 C 32.61 85.05 31.41 84.84 30.20 84.65 C 29.25 84.48 27.36 84.16 26.42 84.00 C 26.30 83.54 26.05 82.61 25.93 82.15 C 25.92 81.68 25.91 80.75 25.90 80.28 C 26.30 74.18 25.11 67.91 26.82 61.95 Z" />
<path fill="#4b4243" opacity="1.00" d=" M 219.19 63.12 C 219.86 60.93 222.12 62.31 223.47 62.94 C 222.83 65.16 219.17 66.17 219.19 63.12 Z" />
<path fill="#4b4243" opacity="1.00" d=" M 146.14 70.70 C 143.68 68.10 146.74 64.97 149.70 66.19 C 150.80 68.75 149.43 72.51 146.14 70.70 Z" />
<path fill="#4b4243" opacity="1.00" d=" M 332.65 66.58 C 335.96 63.89 339.25 70.03 335.10 71.03 C 334.48 70.88 333.25 70.59 332.63 70.44 L 332.04 69.04 C 332.19 68.43 332.50 67.20 332.65 66.58 Z" />
<path fill="#4b4243" opacity="1.00" d=" M 332.33 74.98 C 332.51 72.34 334.48 72.18 336.59 72.67 C 336.60 73.26 336.63 74.42 336.64 75.00 C 335.20 75.00 333.76 75.00 332.33 74.98 Z" />
<path fill="#4b4243" opacity="1.00" d=" M 161.91 81.91 C 163.63 81.91 165.34 81.92 167.06 81.92 C 167.02 82.66 166.93 84.12 166.88 84.85 C 165.25 84.88 163.61 84.91 161.98 84.94 C 161.96 84.18 161.93 82.67 161.91 81.91 Z" />
<path fill="#4b4243" opacity="1.00" d=" M 182.23 82.07 C 184.06 81.97 185.90 81.97 187.74 82.06 C 187.70 82.75 187.62 84.14 187.58 84.83 C 185.84 84.83 184.12 84.82 182.39 84.81 C 182.35 84.12 182.27 82.76 182.23 82.07 Z" />
<path fill="#4b4243" opacity="1.00" d=" M 157.36 83.05 C 160.43 81.59 157.42 86.36 157.36 83.05 Z" />
<path fill="#4b4243" opacity="1.00" d=" M 190.33 83.06 C 193.39 81.58 190.42 86.37 190.33 83.06 Z" />
<path fill="#4b4243" opacity="1.00" d=" M 137.29 85.15 C 137.73 85.12 138.61 85.06 139.06 85.02 L 138.81 85.84 C 138.41 85.85 137.61 85.86 137.21 85.87 L 137.29 85.15 Z" />
<path fill="#4b4243" opacity="1.00" d=" M 202.41 85.20 C 203.66 84.33 204.42 84.54 204.70 85.83 C 203.44 86.70 202.68 86.48 202.41 85.20 Z" />
<path fill="#4b4243" opacity="1.00" d=" M 272.32 85.21 C 273.54 84.33 274.30 84.53 274.61 85.82 C 273.38 86.71 272.62 86.50 272.32 85.21 Z" />
<path fill="#4b4243" opacity="1.00" d=" M 333.58 85.16 C 334.80 84.28 335.55 84.50 335.81 85.82 C 334.58 86.69 333.83 86.48 333.58 85.16 Z" />
<path fill="#4b4243" opacity="1.00" d=" M 341.02 87.20 C 344.99 86.91 348.98 86.97 352.96 87.00 C 352.90 88.74 352.84 90.48 352.78 92.22 C 348.91 92.27 345.04 92.28 341.18 92.28 C 341.11 90.59 341.06 88.89 341.02 87.20 Z" />
<path fill="#4b4243" opacity="1.00" d=" M 356.01 87.01 C 360.30 86.98 364.59 86.99 368.89 87.00 C 368.86 88.75 368.85 90.51 368.83 92.26 C 364.60 92.26 360.36 92.29 356.13 92.22 C 356.08 90.48 356.03 88.75 356.01 87.01 Z" />
</g>
<g id="#0161a0ff">
<path fill="#0161a0" opacity="1.00" d=" M 20.68 9.77 C 30.54 10.30 40.44 9.74 50.30 10.01 C 52.84 10.43 55.41 10.73 57.99 10.69 C 151.55 10.64 245.11 10.71 338.67 10.62 C 339.09 14.88 340.03 19.16 339.41 23.44 C 339.14 24.09 338.62 25.39 338.36 26.04 C 338.22 25.59 337.93 24.71 337.79 24.26 C 326.59 23.63 315.32 24.06 304.10 24.08 C 304.03 35.42 303.96 46.76 304.10 58.09 C 303.75 60.00 305.84 59.60 307.00 59.69 C 317.30 59.66 327.60 59.72 337.89 59.63 C 337.93 60.96 337.96 62.29 337.99 63.62 C 337.60 64.08 336.81 65.02 336.42 65.48 C 335.04 65.79 333.66 66.06 332.31 66.48 C 331.90 67.89 331.97 69.37 331.88 70.82 C 333.44 71.01 335.00 71.21 336.57 71.40 C 336.57 71.72 336.58 72.36 336.59 72.67 C 334.48 72.18 332.51 72.34 332.33 74.98 C 333.76 75.00 335.20 75.00 336.64 75.00 C 336.68 77.07 336.73 79.14 336.79 81.21 C 334.62 81.26 332.45 81.30 330.29 81.35 C 330.19 85.01 329.96 88.66 329.58 92.30 C 329.49 88.57 329.85 84.82 329.41 81.11 C 326.23 72.47 315.60 67.62 307.00 70.94 C 301.95 72.66 298.07 76.84 296.18 81.77 C 262.81 81.81 229.45 81.71 196.08 81.85 C 195.97 66.24 196.14 50.62 196.04 35.01 C 195.99 31.49 196.24 27.98 196.61 24.49 C 181.59 23.62 166.52 24.78 151.50 23.80 C 134.51 23.92 117.53 23.96 100.54 23.78 C 99.61 23.78 98.68 23.81 97.75 23.87 C 80.97 23.99 64.17 24.20 47.41 23.76 C 47.01 23.70 46.22 23.58 45.82 23.52 C 45.83 19.42 45.90 15.33 46.06 11.23 C 38.02 11.24 29.98 11.25 21.93 11.24 C 21.90 15.21 21.86 19.19 21.83 23.16 L 20.80 22.81 C 20.56 18.47 20.61 14.12 20.68 9.77 M 197.31 59.69 C 214.14 59.75 230.96 59.71 247.79 59.72 C 247.88 47.74 247.77 35.77 247.84 23.79 C 231.03 23.61 214.21 23.87 197.40 23.66 C 197.19 35.67 197.34 47.68 197.31 59.69 M 250.33 24.10 C 250.69 36.01 249.87 47.98 250.74 59.86 C 267.60 59.54 284.49 60.24 301.34 59.50 C 301.26 47.76 301.13 36.01 301.40 24.27 C 288.93 24.42 276.44 24.39 263.97 24.36 C 259.42 24.08 254.88 23.78 250.33 24.10 M 219.19 63.12 C 219.17 66.17 222.83 65.16 223.47 62.94 C 222.12 62.31 219.86 60.93 219.19 63.12 Z" />
<path fill="#0161a0" opacity="1.00" d=" M 376.10 10.91 C 377.11 13.37 376.64 16.06 376.60 18.63 C 376.55 19.48 376.54 20.34 376.55 21.19 C 377.06 26.38 379.83 31.01 381.26 35.98 C 385.11 46.17 385.87 57.15 387.30 67.86 C 387.64 70.28 387.65 72.77 387.13 75.17 C 386.71 71.03 386.90 66.78 385.81 62.75 C 385.34 62.44 384.40 61.81 383.93 61.49 C 384.21 61.09 384.77 60.28 385.05 59.88 C 384.60 59.63 383.69 59.14 383.24 58.89 C 381.80 51.79 381.10 44.49 378.53 37.67 C 376.66 32.63 374.93 27.53 373.11 22.47 C 372.55 23.58 372.02 24.70 371.55 25.85 C 371.39 25.39 371.07 24.47 370.91 24.01 C 367.86 23.96 364.81 23.82 361.77 23.69 C 364.57 23.60 367.37 23.35 370.17 23.16 L 370.15 22.15 C 368.56 21.78 366.94 21.51 365.41 20.94 C 365.06 19.23 364.91 17.49 364.73 15.75 C 368.59 16.17 372.28 17.44 376.08 18.19 C 376.06 15.76 376.04 13.34 376.10 10.91 M 367.15 17.42 C 365.57 17.99 366.24 20.76 367.98 20.16 C 369.75 19.72 368.88 16.68 367.15 17.42 Z" />
<path fill="#0161a0" opacity="1.00" d=" M 13.17 56.51 L 13.76 56.46 C 13.76 64.07 13.69 71.69 14.20 79.30 C 16.37 79.25 18.54 79.20 20.70 79.14 C 20.58 73.24 20.53 67.35 20.79 61.45 C 39.81 60.62 58.84 62.42 77.85 61.48 C 83.53 60.78 89.26 60.75 94.95 61.29 C 114.27 62.04 133.62 61.31 152.95 61.66 C 152.89 68.39 152.91 75.13 152.90 81.87 C 148.32 81.89 143.74 81.48 139.16 81.47 C 137.84 81.41 135.89 81.82 136.04 83.55 C 137.30 84.00 138.65 84.10 139.97 84.30 L 139.06 85.02 C 138.61 85.06 137.73 85.12 137.29 85.15 L 137.21 85.87 C 137.61 85.86 138.41 85.85 138.81 85.84 L 138.53 86.69 C 137.96 86.89 136.83 87.30 136.26 87.50 C 136.07 89.12 135.88 90.75 135.69 92.38 C 135.56 88.27 135.75 84.10 135.09 80.04 C 133.39 76.29 130.02 73.54 126.60 71.39 C 117.82 67.15 106.77 71.61 102.65 80.26 C 102.82 84.30 102.43 88.32 102.31 92.35 C 102.08 90.74 101.85 89.12 101.63 87.51 C 101.25 87.29 100.50 86.86 100.12 86.65 C 100.49 86.33 101.22 85.70 101.58 85.38 C 100.93 85.21 99.63 84.88 98.97 84.71 C 99.83 83.89 102.19 83.80 101.69 82.24 C 96.89 80.95 91.86 81.21 86.95 81.27 C 74.13 81.72 61.28 80.61 48.51 82.05 C 49.22 82.90 49.94 83.74 50.66 84.58 C 50.32 84.75 49.66 85.07 49.33 85.24 C 49.22 87.08 49.11 88.93 48.99 90.78 C 49.61 91.00 50.83 91.45 51.44 91.67 C 50.18 91.50 48.93 91.34 47.67 91.18 C 47.67 89.87 47.68 88.56 47.68 87.25 C 45.72 87.11 43.75 86.96 41.79 86.82 C 42.45 86.73 43.76 86.55 44.42 86.45 C 45.08 85.18 43.27 84.87 42.52 84.34 C 43.65 84.14 44.79 83.96 45.93 83.77 C 46.32 83.80 47.09 83.84 47.47 83.86 C 47.86 81.58 47.50 79.29 46.34 77.28 C 46.11 72.58 46.56 67.85 45.93 63.18 C 44.59 61.86 42.63 62.03 40.91 61.92 C 36.22 61.86 31.52 61.95 26.82 61.95 C 25.18 61.97 23.54 62.02 21.91 62.06 C 21.78 68.28 21.65 74.51 22.06 80.73 C 23.34 80.58 24.62 80.43 25.90 80.28 C 25.91 80.75 25.92 81.68 25.93 82.15 C 24.95 81.83 22.57 81.22 22.34 82.66 C 23.42 83.68 25.04 83.68 26.42 84.00 C 27.36 84.16 29.25 84.48 30.20 84.65 C 27.47 84.52 24.73 84.65 22.00 84.74 L 21.94 85.98 C 25.90 86.08 29.93 86.27 33.81 85.29 C 35.67 85.66 37.49 86.18 39.33 86.64 C 33.45 87.06 27.54 86.98 21.68 87.73 C 19.39 87.89 17.12 87.42 14.87 87.06 C 16.79 86.95 18.72 86.85 20.64 86.75 C 20.67 84.83 20.71 82.91 20.75 80.99 C 18.47 80.89 16.19 80.80 13.91 80.72 C 13.88 82.67 13.84 84.62 13.78 86.57 C 12.58 83.84 13.67 80.89 13.55 78.05 C 12.95 70.88 13.27 63.69 13.17 56.51 M 146.14 70.70 C 149.43 72.51 150.80 68.75 149.70 66.19 C 146.74 64.97 143.68 68.10 146.14 70.70 M 46.06 85.13 C 46.19 85.45 46.45 86.08 46.59 86.39 L 47.36 85.94 L 47.33 84.99 L 46.54 84.58 L 46.06 85.13 Z" />
<path fill="#0161a0" opacity="1.00" d=" M 156.02 61.23 C 161.68 61.29 167.34 61.08 173.00 61.32 C 173.00 67.83 173.00 74.34 172.99 80.86 C 167.34 80.73 161.69 80.74 156.04 80.85 C 156.06 74.31 156.08 67.77 156.02 61.23 Z" />
<path fill="#0161a0" opacity="1.00" d=" M 176.00 61.35 C 181.66 61.04 187.33 61.28 192.99 61.21 C 192.96 67.74 192.97 74.27 192.98 80.80 C 187.32 80.70 181.66 81.14 176.00 80.89 C 176.00 74.38 176.00 67.87 176.00 61.35 Z" />
<path fill="#0161a0" opacity="1.00" d=" M 114.38 73.55 C 121.21 70.86 130.07 74.62 132.13 81.85 C 134.42 88.70 131.12 97.44 123.96 99.76 C 116.92 102.80 107.78 98.46 105.88 90.96 C 105.12 87.08 104.95 82.66 107.25 79.24 C 108.77 76.50 111.57 74.76 114.38 73.55 M 112.84 83.99 C 110.69 88.20 114.41 93.60 118.97 93.64 C 123.42 93.67 127.08 88.66 125.38 84.45 C 124.49 81.61 121.60 80.37 119.02 79.49 C 116.59 80.34 113.81 81.34 112.84 83.99 Z" />
<path fill="#0161a0" opacity="1.00" d=" M 309.47 73.55 C 316.31 71.46 324.31 75.95 326.14 82.86 C 328.92 90.53 323.30 99.80 315.19 100.87 C 307.42 102.42 299.48 95.93 299.20 88.07 C 298.65 81.59 303.05 75.05 309.47 73.55 M 310.54 80.68 C 306.24 82.43 304.70 88.51 308.16 91.80 C 311.42 95.60 318.22 93.82 319.45 89.04 C 321.24 84.00 315.48 78.48 310.54 80.68 Z" />
</g>
<g id="#080405ff">
<path fill="#080405" opacity="1.00" d=" M 339.41 23.44 C 346.86 23.73 354.31 23.53 361.77 23.69 C 364.81 23.82 367.86 23.96 370.91 24.01 C 371.07 24.47 371.39 25.39 371.55 25.85 C 372.59 37.22 371.70 48.71 372.01 60.12 C 372.02 60.50 372.03 61.24 372.03 61.62 C 372.08 71.66 371.90 81.71 372.13 91.76 C 371.31 91.89 369.66 92.14 368.83 92.26 C 368.85 90.51 368.86 88.75 368.89 87.00 C 369.03 67.02 368.87 47.04 369.00 27.06 C 364.67 27.06 360.35 26.87 356.02 26.80 C 355.99 46.87 355.99 66.94 356.01 87.01 C 356.03 88.75 356.08 90.48 356.13 92.22 C 355.29 92.22 353.62 92.22 352.78 92.22 C 352.84 90.48 352.90 88.74 352.96 87.00 C 353.05 66.95 352.98 46.89 352.99 26.83 C 349.01 26.85 345.02 26.86 341.05 26.64 C 341.06 46.82 340.98 67.01 341.02 87.20 C 341.06 88.89 341.11 90.59 341.18 92.28 C 340.41 92.27 338.89 92.26 338.12 92.25 C 337.76 82.71 338.12 73.16 337.99 63.62 C 337.96 62.29 337.93 60.96 337.89 59.63 C 337.75 51.75 337.88 43.86 337.82 35.98 C 337.82 32.66 337.64 29.30 338.36 26.04 C 338.62 25.39 339.14 24.09 339.41 23.44 Z" />
<path fill="#080405" opacity="1.00" d=" M 152.98 26.96 C 154.01 26.25 155.03 25.53 156.06 24.81 C 169.57 24.65 183.11 25.23 196.61 24.49 C 196.24 27.98 195.99 31.49 196.04 35.01 C 196.14 50.62 195.97 66.24 196.08 81.85 C 196.09 85.18 196.05 88.51 195.98 91.85 C 195.24 91.85 193.76 91.85 193.02 91.86 C 192.99 88.17 192.99 84.49 192.98 80.80 C 192.97 74.27 192.96 67.74 192.99 61.21 C 192.97 49.92 193.07 38.64 192.93 27.35 C 187.31 27.45 181.68 27.44 176.06 27.36 C 175.93 38.69 176.03 50.02 176.00 61.35 C 176.00 67.87 176.00 74.38 176.00 80.89 C 176.00 84.55 176.01 88.21 175.98 91.87 C 175.23 91.86 173.75 91.83 173.01 91.82 C 172.99 88.17 172.99 84.51 172.99 80.86 C 173.00 74.34 173.00 67.83 173.00 61.32 C 172.96 50.00 173.09 38.67 172.92 27.34 C 167.29 27.45 161.67 27.42 156.04 27.38 C 155.97 38.66 156.00 49.95 156.02 61.23 C 156.08 67.77 156.06 74.31 156.04 80.85 C 156.03 84.53 156.03 88.20 155.97 91.87 C 155.24 91.86 153.77 91.85 153.04 91.84 C 152.98 89.51 152.93 87.17 152.89 84.84 C 152.44 84.73 151.54 84.51 151.08 84.41 C 151.54 84.39 152.45 84.36 152.91 84.35 C 152.91 83.73 152.90 82.49 152.90 81.87 C 152.91 75.13 152.89 68.39 152.95 61.66 C 133.62 61.31 114.27 62.04 94.95 61.29 C 114.29 61.54 133.64 61.32 152.98 61.39 C 153.01 49.91 152.97 38.44 152.98 26.96 Z" />
<path fill="#080405" opacity="1.00" d=" M 259.76 25.69 C 272.51 24.85 285.33 25.62 298.10 25.30 C 298.23 27.60 298.26 29.91 298.30 32.21 C 285.46 32.16 272.62 32.17 259.78 32.21 C 259.79 30.04 259.78 27.86 259.76 25.69 Z" />
</g>
</svg>
